<svg width="122" height="142" viewBox="0 0 122 142" fill="none" xmlns="http://www.w3.org/2000/svg">
<path fill-rule="evenodd" clip-rule="evenodd" d="M68.8718 14.6468C70.6672 12.7582 70.5899 9.7731 68.6993 7.97847L61.6575 1.29675C59.7668 -0.496747 56.7785 -0.420666 54.983 1.46794C53.1865 3.35654 53.2638 6.34162 55.1544 8.13512L62.1962 14.818C64.0869 16.6115 67.0752 16.5354 68.8718 14.6468ZM66.2318 10.5753C66.6865 11.0083 66.7056 11.7266 66.2721 12.182C65.8398 12.6362 65.1207 12.6552 64.6648 12.2234L57.623 5.54053C57.1672 5.10865 57.1492 4.38923 57.5816 3.93498C58.0139 3.47962 58.7341 3.46172 59.1889 3.89359L66.2318 10.5753ZM13.0447 14.8996C8.09624 14.8996 4.08419 18.9073 4.08419 23.8504V106.197C4.08419 110.759 7.50036 114.523 11.9168 115.077V43.2097C11.9168 38.2666 15.9277 34.2589 20.8772 34.2589H89.5738C94.5223 34.2589 98.5343 38.2666 98.5343 43.2097V45.6197H104.102V37.7564C104.102 32.8123 100.09 28.8057 95.1416 28.8057H68.6377C65.2316 28.8057 61.9733 27.4228 59.6089 24.9748L52.5211 17.6363C50.8332 15.8876 48.5046 14.8996 46.073 14.8996H13.0447ZM107.686 45.6197V37.7564C107.686 30.8353 102.07 25.2254 95.1416 25.2254H68.6377C66.2049 25.2254 63.8774 24.2375 62.1884 22.4887L55.1007 15.1503C52.7362 12.7022 49.478 11.3193 46.073 11.3193H13.0447C6.11709 11.3193 0.5 16.9303 0.5 23.8504V106.197C0.5 113.118 6.11709 118.728 13.0447 118.728H43.5741C44.4926 131.734 55.3459 142 68.5996 142C81.8544 142 92.7078 131.734 93.6262 118.728H108.955C115.884 118.728 121.5 113.118 121.5 106.197V58.1507C121.5 51.2306 115.884 45.6197 108.955 45.6197H107.686ZM93.6262 115.148H108.955C113.904 115.148 117.916 111.14 117.916 106.197V58.1507C117.916 53.2076 113.904 49.1999 108.955 49.1999H29.3527C24.4043 49.1999 20.3922 53.2076 20.3922 58.1507V115.148H43.5741C44.4926 102.142 55.3459 91.8759 68.5996 91.8759C81.8544 91.8759 92.7078 102.142 93.6262 115.148ZM76.8824 11.4816C74.2749 11.514 72.1883 13.6532 72.2219 16.2579C72.2555 18.8626 74.3959 20.9458 77.0034 20.9134L86.7154 20.7881C89.3229 20.7556 91.4096 18.6164 91.376 16.0118C91.3424 13.4082 89.202 11.3238 86.5945 11.3574L76.8824 11.4816ZM75.8061 16.212C75.7982 15.5844 76.3 15.0697 76.9284 15.0607L86.6404 14.9366C87.2687 14.9287 87.784 15.4311 87.7918 16.0576C87.8008 16.6853 87.2979 17.2011 86.6695 17.2089L76.9575 17.3331C76.3291 17.3409 75.8139 16.8386 75.8061 16.212ZM47.0945 116.938C47.0945 105.074 56.7236 95.4562 68.5996 95.4562C80.4767 95.4562 90.1047 105.074 90.1047 116.938C90.1047 128.802 80.4767 138.42 68.5996 138.42C56.7236 138.42 47.0945 128.802 47.0945 116.938ZM64.1194 105.302C64.1194 102.83 66.1254 100.827 68.5996 100.827C71.0749 100.827 73.0798 102.83 73.0798 105.302V116.043C73.0798 118.514 71.0749 120.518 68.5996 120.518C66.1254 120.518 64.1194 118.514 64.1194 116.043V105.302ZM68.5996 104.407C68.1057 104.407 67.7036 104.807 67.7036 105.302V116.043C67.7036 116.537 68.1057 116.938 68.5996 116.938C69.0947 116.938 69.4957 116.537 69.4957 116.043V105.302C69.4957 104.807 69.0947 104.407 68.5996 104.407ZM68.5996 133.049C66.1254 133.049 64.1194 131.045 64.1194 128.574C64.1194 126.102 66.1254 124.099 68.5996 124.099C71.0749 124.099 73.0798 126.102 73.0798 128.574C73.0798 131.045 71.0749 133.049 68.5996 133.049ZM67.7036 128.574C67.7036 129.068 68.1057 129.469 68.5996 129.469C69.0947 129.469 69.4957 129.068 69.4957 128.574C69.4957 128.079 69.0947 127.679 68.5996 127.679C68.1057 127.679 67.7036 128.079 67.7036 128.574Z" fill="#B9B9B9" fill-opacity="0.1"/>
</svg>
