<svg width="136" height="40" viewBox="0 0 136 40" fill="none" xmlns="http://www.w3.org/2000/svg">
<path d="M81.2571 6.14648V6.52865C81.2571 6.68789 81.1931 6.78343 81.033 6.78343H80.1687V9.9363H79.5284V6.78343H78.4399V6.36942C78.4399 6.21018 78.504 6.14648 78.664 6.14648H81.2571Z" fill="#0C098C"/>
<path d="M84.7139 6.36942C84.7459 6.30572 84.81 6.24203 84.874 6.21018C84.938 6.17834 85.002 6.14648 85.0981 6.14648C85.1941 6.14648 85.2581 6.17833 85.3542 6.24202C85.4502 6.30572 85.4822 6.43311 85.4822 6.59234V9.71337C85.4822 9.87261 85.4182 9.9363 85.2582 9.9363H84.842V7.26114L83.9136 8.59872C83.8175 8.72611 83.7215 8.7898 83.5614 8.7898C83.4014 8.7898 83.3053 8.72611 83.2093 8.59872L82.2809 7.26114V9.71337C82.2809 9.87261 82.2169 9.9363 82.0568 9.9363H81.6406V6.59234C81.6406 6.43311 81.6726 6.30572 81.7687 6.24202C81.8647 6.17833 81.9288 6.14648 82.0248 6.14648C82.1208 6.14648 82.1848 6.17834 82.2489 6.21018C82.3129 6.24203 82.3769 6.30572 82.4089 6.33757L83.5614 8.02547L84.7139 6.36942Z" fill="#0C098C"/>
<path d="M6.76055 14.8091C6.76055 13.6626 7.30479 13.0894 8.42526 13.0894H10.9863V22.4843C10.9863 22.7072 11.2745 22.8346 11.8187 22.8664C12.3629 22.8983 13.0352 22.9301 13.8035 22.9301H15.1801V26.9747H13.8035C13.4194 26.9747 12.9712 26.8792 12.3949 26.6881C11.8187 26.497 11.3705 26.2741 10.9863 26.0193V30.0002C10.9863 31.8792 10.5382 33.2486 9.67379 34.1085C8.80942 34.9684 7.62492 35.4142 6.12028 35.4142C5.70411 35.4142 5.1919 35.3824 4.61565 35.2869C4.03941 35.1913 3.33511 35.0002 2.50276 34.6817C1.79846 34.3314 1.57436 33.7263 1.83047 32.8028L2.40672 30.6053C3.079 30.9875 3.65525 31.2423 4.13545 31.3696C4.61565 31.497 5.03183 31.5607 5.38398 31.5607C5.89619 31.5607 6.28035 31.4015 6.50445 31.1467C6.72854 30.8601 6.82458 30.4142 6.82458 29.7773V14.8091H6.76055Z" fill="#0C098C"/>
<path d="M17.0698 8.08927C17.0698 6.97462 17.6141 6.40137 18.7345 6.40137H21.2956V14.1084L32.5644 12.3249C33.1726 12.2613 33.7169 12.2613 34.165 12.3249C34.6453 12.3886 35.1895 12.5797 35.7977 12.8982C36.406 13.1848 36.9502 13.5351 37.3664 13.8855C37.8146 14.2358 38.1988 14.6816 38.5189 15.223C38.839 15.7644 39.1271 16.3695 39.3192 17.102C39.5113 17.8345 39.6073 18.6625 39.6073 19.6498C39.6073 20.6052 39.5113 21.5288 39.2872 22.4205C39.0631 23.3122 38.711 24.1084 38.2308 24.7772C37.7186 25.4778 37.0463 26.0192 36.1819 26.4333C35.3175 26.8473 34.2291 27.0383 32.9485 27.0383H14.0605V22.9938H17.0698V8.08927ZM32.4363 22.9619C32.6604 22.9619 32.9485 22.9301 33.3327 22.8345C33.6848 22.739 34.037 22.5797 34.3571 22.3568C34.6773 22.1339 34.9654 21.8154 35.1895 21.4014C35.4136 20.9874 35.5416 20.4778 35.5416 19.809C35.5416 19.0447 35.4456 18.4078 35.2215 17.9619C34.9974 17.516 34.7413 17.1339 34.4532 16.8791C34.165 16.6243 33.8449 16.4332 33.4928 16.3377C33.1406 16.2422 32.8845 16.1785 32.6604 16.1785L21.2636 18.0893V22.9301H32.4363V22.9619Z" fill="#0C098C"/>
<path d="M44.0889 4.26758H46.65C47.7384 4.26758 48.3147 4.84082 48.3147 5.95548V20.5096C48.3147 21.3058 48.5387 21.9109 49.019 22.3249C49.4992 22.7389 50.2675 22.93 51.3239 22.93H52.7645V26.9746H51.2919C49.8513 26.9746 48.6988 26.8154 47.7704 26.4651C46.842 26.1147 46.1377 25.6052 45.5615 24.9682C45.0173 24.3313 44.6331 23.5351 44.409 22.6116C44.1849 21.688 44.0889 20.637 44.0889 19.4587V4.26758Z" fill="#0C098C"/>
<path d="M71.5563 26.9747C70.4998 26.9747 69.6355 26.7836 68.8992 26.4333C68.1949 26.083 67.6506 25.7326 67.2665 25.3823C66.9143 25.7326 66.4021 26.0511 65.7618 26.3696C65.0896 26.6881 64.1932 26.8791 63.0727 26.9747H62.3364C61.8242 26.9747 61.1519 26.8791 60.4156 26.6562C59.6472 26.4333 58.943 26.1148 58.3347 25.6689C57.9185 26.0511 57.3743 26.3696 56.702 26.5925C56.0297 26.8473 55.2614 26.9747 54.365 26.9747H51.3237V22.9301H53.5327C54.2049 22.9301 54.6852 22.7709 54.9733 22.4524C55.2614 22.1339 55.3895 21.7199 55.3895 21.2103V17.1339C55.3895 15.9874 55.9337 15.4142 56.9901 15.4142H59.5832V22.325C59.7433 22.4205 60.0314 22.5479 60.4476 22.7072C60.8638 22.8664 61.5361 22.9619 62.4004 22.9619C62.6565 22.9619 62.9126 22.9301 63.2008 22.8982C63.4889 22.8664 63.713 22.8027 63.9371 22.7072C64.1612 22.6116 64.3532 22.4842 64.5133 22.2931C64.6734 22.1339 64.7374 21.8791 64.7374 21.5925V17.1339C64.7374 15.9874 65.2816 15.4142 66.4021 15.4142H68.9632V22.0702C69.3474 22.4842 69.7955 22.739 70.2757 22.8345C70.756 22.9301 71.2041 22.9619 71.6203 22.9619C72.7088 22.9619 73.4131 22.739 73.7652 22.2613C74.1174 21.7836 74.3094 21.083 74.3094 20.1594V14.8091C74.3094 13.6626 74.8537 13.0893 75.9742 13.0893H78.5352V20.0638C78.5352 21.083 78.4392 22.0065 78.2471 22.8664C78.055 23.7263 77.7029 24.4269 77.1907 25.0639C76.6784 25.669 75.9742 26.1467 75.0778 26.497C74.0854 26.8155 72.9329 26.9747 71.5563 26.9747ZM61.8882 9.14025C61.8882 8.47146 62.1123 7.89821 62.5925 7.42051C63.0727 6.9428 63.6489 6.71986 64.3532 6.71986C65.0255 6.71986 65.6018 6.9428 66.082 7.42051C66.5622 7.89821 66.7863 8.47146 66.7863 9.14025C66.7863 9.80904 66.5622 10.3823 66.082 10.86C65.6018 11.3377 65.0255 11.5606 64.3532 11.5606C63.6489 11.5606 63.0727 11.3377 62.5925 10.86C62.1123 10.3823 61.8882 9.80904 61.8882 9.14025ZM64.6414 4.20394C64.6414 3.5033 64.8655 2.93005 65.3457 2.45234C65.8259 1.97463 66.4021 1.75171 67.1064 1.75171C67.7787 1.75171 68.3549 1.97463 68.8351 2.45234C69.3153 2.93005 69.5394 3.5033 69.5394 4.20394C69.5394 4.87273 69.3153 5.44598 68.8351 5.92368C68.3549 6.40139 67.7787 6.62433 67.1064 6.62433C66.4021 6.62433 65.8259 6.40139 65.3457 5.92368C64.8975 5.44598 64.6414 4.87273 64.6414 4.20394ZM67.5546 9.14025C67.5546 8.47146 67.8107 7.89821 68.2909 7.42051C68.7711 6.9428 69.3474 6.71986 70.0517 6.71986C70.7239 6.71986 71.3002 6.9428 71.7804 7.42051C72.2606 7.89821 72.4847 8.47146 72.4847 9.14025C72.4847 9.80904 72.2606 10.3823 71.7804 10.86C71.3002 11.3377 70.7239 11.5606 70.0517 11.5606C69.3794 11.5606 68.8031 11.3377 68.2909 10.86C67.7787 10.3823 67.5546 9.80904 67.5546 9.14025Z" fill="#0C098C"/>
<path d="M19.5347 34.0127C19.5347 33.6942 19.6948 33.5032 20.0149 33.5032H20.7512V36.242C20.7512 36.3057 20.8153 36.3376 20.9753 36.3694C21.1354 36.3694 21.3275 36.4013 21.5516 36.4013H21.9677V37.5796H21.5516C21.4555 37.5796 21.2955 37.5478 21.1354 37.4841C20.9753 37.4204 20.8473 37.3567 20.7192 37.293V38.4395C20.7192 38.9809 20.5912 39.363 20.3351 39.6178C20.079 39.8726 19.7268 40 19.3106 40C19.1826 40 19.0545 40 18.8624 39.9681C18.7024 39.9363 18.4783 39.8726 18.2542 39.7771C18.0621 39.6815 17.9981 39.4904 18.0621 39.2357L18.2222 38.5987C18.4142 38.6943 18.5743 38.7898 18.7344 38.8216C18.8624 38.8535 18.9905 38.8853 19.0865 38.8853C19.2466 38.8853 19.3426 38.8535 19.4067 38.758C19.4707 38.6624 19.5027 38.535 19.5027 38.3758V34.0127H19.5347Z" fill="#0C098C"/>
<path d="M22.512 32.0697C22.512 31.7513 22.6721 31.592 22.9922 31.592H23.7286V33.8213L26.9939 33.3118C27.154 33.2799 27.3141 33.2799 27.4741 33.3118C27.6342 33.3436 27.7623 33.3755 27.9543 33.471C28.1464 33.5666 28.2745 33.6621 28.4025 33.7576C28.5306 33.8532 28.6266 33.9806 28.7547 34.1398C28.8507 34.2991 28.9148 34.4583 28.9788 34.6812C29.0428 34.9041 29.0748 35.1271 29.0748 35.4137C29.0748 35.7003 29.0428 35.9551 28.9788 36.2099C28.9148 36.4647 28.8187 36.6876 28.6586 36.9105C28.4986 37.1016 28.3065 37.2608 28.0824 37.3882C27.8263 37.5156 27.5062 37.5793 27.154 37.5793H21.6797V36.401H22.5441V32.0697H22.512ZM26.9939 36.3691C27.058 36.3691 27.154 36.3691 27.25 36.3373C27.3461 36.3054 27.4421 36.2736 27.5382 36.2099C27.6342 36.1462 27.6982 36.0506 27.7943 35.9233C27.8583 35.7959 27.8903 35.6366 27.8903 35.4774C27.8903 35.2545 27.8583 35.0634 27.7943 34.936C27.7302 34.8086 27.6662 34.7131 27.5702 34.6175C27.4741 34.5538 27.3781 34.4901 27.2821 34.4583C27.186 34.4264 27.09 34.4264 27.026 34.4264L23.7286 34.9678V36.3691H26.9939Z" fill="#0C098C"/>
<path d="M30.3555 30.9873H31.0918C31.4119 30.9873 31.572 31.1465 31.572 31.465V35.6688C31.572 35.8918 31.636 36.0829 31.7641 36.1784C31.8921 36.3058 32.1162 36.3695 32.4363 36.3695H32.8525V37.5478H32.4363C32.0202 37.5478 31.7 37.4841 31.4119 37.3886C31.1558 37.293 30.9317 37.1338 30.7716 36.9427C30.6116 36.7517 30.5155 36.5287 30.4515 36.2421C30.3875 35.9873 30.3555 35.6688 30.3555 35.3185V30.9873Z" fill="#0C098C"/>
<path d="M38.4226 37.5479C38.0704 37.5479 37.7823 37.4842 37.5582 37.3886C37.3341 37.2931 37.174 37.1657 37.046 37.0702C36.9499 37.1657 36.7899 37.2613 36.5978 37.3568C36.4057 37.4523 36.1496 37.516 35.8295 37.5479H35.6374C35.4773 37.5479 35.2852 37.516 35.0611 37.4523C34.8371 37.3886 34.645 37.2931 34.4529 37.1657C34.3248 37.2931 34.1648 37.3886 33.9727 37.4523C33.7806 37.516 33.5565 37.5479 33.3004 37.5479H32.436V36.3695H33.0763C33.2684 36.3695 33.3964 36.3059 33.4605 36.2103C33.5245 36.1148 33.5565 35.9874 33.5565 35.8281V34.6498C33.5565 34.3313 33.7166 34.1402 34.0367 34.1402H34.773V36.1466C34.805 36.1785 34.9011 36.2103 34.9971 36.274C35.1252 36.3058 35.2852 36.3377 35.5414 36.3377C35.6054 36.3377 35.7014 36.3377 35.7654 36.3058C35.8615 36.3058 35.9255 36.274 35.9895 36.2422C36.0536 36.2103 36.1176 36.1784 36.1496 36.1148C36.1816 36.0511 36.2136 35.9874 36.2136 35.9237V34.618C36.2136 34.2995 36.3737 34.1084 36.6938 34.1084H37.4302V36.0192C37.5582 36.1466 37.7183 36.2103 37.8783 36.2422C38.0704 36.274 38.1985 36.274 38.3265 36.274H38.3585C38.5506 36.274 38.6787 36.2422 38.7747 36.1466C38.8387 36.0511 38.9028 35.9237 38.9028 35.7963V34.0128C38.9028 33.6944 39.0628 33.5033 39.383 33.5033H40.1193V36.1785C40.1193 36.2421 40.1833 36.3058 40.3434 36.3377C40.5035 36.3695 40.6955 36.3695 40.9516 36.3695H41.3678V37.5479H40.9516C40.7916 37.5479 40.5995 37.516 40.3754 37.4205C40.1513 37.325 39.9592 37.2294 39.7671 37.102C39.6391 37.1976 39.479 37.3249 39.2869 37.3886C39.0949 37.4842 38.8708 37.516 38.6146 37.516H38.4226V37.5479ZM35.5093 32.3886C35.5093 32.1976 35.5734 32.0383 35.7014 31.8791C35.8295 31.7517 36.0215 31.688 36.2136 31.688C36.4057 31.688 36.5658 31.7517 36.7258 31.8791C36.8539 32.0065 36.9179 32.1976 36.9179 32.3886C36.9179 32.5797 36.8539 32.739 36.7258 32.8982C36.5978 33.0256 36.4057 33.0893 36.2136 33.0893C36.0215 33.0893 35.8295 33.0256 35.7014 32.8982C35.5734 32.739 35.5093 32.5797 35.5093 32.3886ZM36.3097 30.9555C36.3097 30.7644 36.3737 30.5733 36.5018 30.446C36.6298 30.3186 36.8219 30.2549 37.014 30.2549C37.206 30.2549 37.3661 30.3186 37.5262 30.446C37.6542 30.5733 37.7183 30.7644 37.7183 30.9555C37.7183 31.1466 37.6542 31.3058 37.5262 31.4651C37.3981 31.5925 37.206 31.6561 37.014 31.6561C36.8219 31.6561 36.6298 31.5925 36.5018 31.4651C36.3737 31.3058 36.3097 31.1466 36.3097 30.9555ZM37.142 32.3886C37.142 32.1976 37.2061 32.0383 37.3661 31.8791C37.4942 31.7517 37.6863 31.688 37.8783 31.688C38.0704 31.688 38.2305 31.7517 38.3906 31.8791C38.5186 32.0065 38.5826 32.1976 38.5826 32.3886C38.5826 32.5797 38.5186 32.739 38.3906 32.8982C38.2625 33.0256 38.0704 33.0893 37.8783 33.0893C37.6863 33.0893 37.5262 33.0256 37.3661 32.8982C37.2061 32.739 37.142 32.5797 37.142 32.3886Z" fill="#0C098C"/>
<path d="M43.737 35.3504C43.737 35.7007 43.705 35.9873 43.641 36.2739C43.5769 36.5606 43.4809 36.7835 43.3208 36.9746C43.1607 37.1657 42.9367 37.2931 42.6805 37.4204C42.4244 37.516 42.0723 37.5797 41.6561 37.5797H41.0479V36.4013H41.6561C41.9762 36.4013 42.1683 36.3376 42.3284 36.2103C42.4564 36.0829 42.5205 35.9236 42.5205 35.6688V31.465C42.5205 31.1465 42.6805 30.9873 43.0007 30.9873H43.737V35.3504Z" fill="#0C098C"/>
<path d="M46.2336 37.0701C46.2336 37.3886 46.0735 37.5478 45.7534 37.5478H45.0171V31.465C45.0171 31.1465 45.1772 30.9873 45.4973 30.9873H46.2336V37.0701Z" fill="#0C098C"/>
<path d="M56.7984 36.1784C56.7984 36.2421 56.8625 36.3058 57.0225 36.3376C57.1826 36.3695 57.3747 36.3695 57.5988 36.3695H58.0149V37.5478H57.5988C57.4387 37.5478 57.2466 37.516 57.0545 37.4204C56.8625 37.3249 56.6704 37.2293 56.4783 37.0701C56.3823 37.2293 56.2222 37.3249 55.9981 37.4204C55.774 37.516 55.5499 37.5478 55.2938 37.5478H52.4126C51.9964 37.5478 51.6122 37.4841 51.2921 37.3886C50.972 37.2612 50.7159 37.1338 50.5238 36.9109C50.3317 36.6879 50.1716 36.4969 50.0756 36.2421C49.9796 35.9873 49.9155 35.7007 49.9155 35.4141C49.9155 35.223 49.9475 35.0319 49.9795 34.8408C50.0116 34.6497 50.0436 34.4905 50.1076 34.3313C50.1716 34.172 50.2037 34.0128 50.2677 33.8854C50.5238 33.9491 50.7479 34.0446 50.94 34.1083C51.1 34.172 51.1961 34.2357 51.2281 34.2994C51.2601 34.395 51.2601 34.5223 51.2281 34.6816C51.2281 34.7771 51.1961 34.8727 51.1641 34.9682C51.132 35.0637 51.132 35.1911 51.132 35.3504C51.132 35.5733 51.1641 35.7325 51.2281 35.8918C51.2921 36.0192 51.3882 36.1466 51.5162 36.2103C51.6443 36.2739 51.7723 36.3376 51.9324 36.3695C52.0924 36.4013 52.2205 36.4013 52.3806 36.4013H55.0057C55.1978 36.4013 55.3258 36.3695 55.4219 36.2739C55.5179 36.1784 55.5499 36.051 55.5499 35.9236V31.465C55.5499 31.1465 55.71 30.9873 56.0301 30.9873H56.7664V36.1784H56.7984ZM52.2205 33.8217V33.344C52.2205 33.1848 52.3165 33.0892 52.4766 33.0892C52.4126 32.9937 52.4126 32.8981 52.4126 32.7389C52.4126 32.5797 52.4446 32.4204 52.5086 32.293C52.5727 32.1656 52.6687 32.0701 52.7647 32.0064C52.8928 31.9427 52.9888 31.879 53.1489 31.8472C53.277 31.8153 53.437 31.7835 53.5971 31.7835C53.7251 31.7835 53.8532 31.7835 53.9812 31.8153C54.1093 31.8472 54.3014 31.879 54.4614 31.9427C54.4614 32.0701 54.4294 32.1975 54.3974 32.3249C54.3654 32.3886 54.3334 32.4841 54.2694 32.516C54.2053 32.5797 54.1413 32.5797 54.0773 32.5797C53.9172 32.5478 53.7251 32.516 53.5651 32.516C53.373 32.516 53.2449 32.5478 53.1809 32.6115C53.1169 32.6752 53.0849 32.7389 53.0849 32.7707C53.0849 32.8981 53.1489 32.9618 53.2449 33.0255C53.341 33.0574 53.469 33.0892 53.5651 33.0892H54.1093C54.2694 33.0892 54.3654 33.1848 54.3654 33.344V33.8217H52.2205Z" fill="#0C098C"/>
<path d="M61.7286 36.3695C61.8566 36.3695 61.9207 36.3694 61.9847 36.4013C62.0487 36.4331 62.0807 36.465 62.1128 36.5287C62.1448 36.5924 62.1448 36.6242 62.1448 36.6879C62.1448 36.7516 62.1448 36.8153 62.1448 36.879V37.5159H57.6309V36.3376H58.3992C58.3352 36.2102 58.3031 36.0828 58.2391 35.9236C58.2071 35.7644 58.1751 35.5733 58.1751 35.3185C58.1751 35 58.2071 34.7134 58.3031 34.4586C58.3992 34.2038 58.5272 33.9809 58.6873 33.8217C58.8794 33.6306 59.1035 33.5032 59.3916 33.4077C59.6797 33.3121 60.0319 33.2803 60.448 33.2803C60.6401 33.2803 60.8322 33.2803 61.0563 33.3121C61.2804 33.344 61.4725 33.3758 61.6646 33.4077C61.8566 33.4395 62.0487 33.4714 62.2728 33.535C62.2088 33.758 62.1448 33.9491 62.0807 34.1402C62.0487 34.2994 61.9527 34.3949 61.8566 34.4586C61.7606 34.5223 61.6005 34.5541 61.3764 34.5223C61.1844 34.4905 61.0243 34.4905 60.8642 34.4586C60.7042 34.4586 60.5121 34.4268 60.352 34.4268C60.1599 34.4268 59.9999 34.4586 59.9038 34.4905C59.7758 34.5223 59.6797 34.6178 59.6157 34.6815C59.5517 34.7771 59.5197 34.8726 59.4876 34.9682C59.4556 35.0956 59.4556 35.1911 59.4556 35.3185C59.4556 35.5414 59.4876 35.7007 59.5197 35.828C59.5517 35.9554 59.6157 36.051 59.6797 36.1465C59.7438 36.2102 59.8078 36.2739 59.8718 36.3058C59.9358 36.3376 59.9999 36.3376 60.0319 36.3376H61.7286V36.3695Z" fill="#0C098C"/>
<path d="M63.3296 30.9873H64.0659C64.386 30.9873 64.5461 31.1465 64.5461 31.465V35.6688C64.5461 35.8918 64.6101 36.0829 64.7382 36.1784C64.8662 36.3058 65.0903 36.3695 65.4105 36.3695H65.8266V37.5478H65.4105C64.9943 37.5478 64.6742 37.4841 64.386 37.3886C64.1299 37.293 63.9058 37.1338 63.7458 36.9427C63.5857 36.7517 63.4897 36.5287 63.4256 36.2421C63.3616 35.9873 63.3296 35.6688 63.3296 35.3185V30.9873Z" fill="#0C098C"/>
<path d="M66.6269 34.0127C66.6269 33.6942 66.787 33.5032 67.1071 33.5032H67.8435V36.1783C67.8435 36.242 67.9075 36.3057 68.0355 36.3376C68.1636 36.3694 68.3877 36.3694 68.6758 36.3694H69.092V37.5478H68.6758C68.5158 37.5478 68.3237 37.5159 68.0996 37.4522C67.8755 37.3885 67.6834 37.293 67.4913 37.1337C67.3633 37.2293 67.2032 37.3248 67.0111 37.4204C66.819 37.5159 66.5949 37.5478 66.3388 37.5478H65.3784V36.3694H66.0507C66.2428 36.3694 66.3708 36.3376 66.4669 36.242C66.5629 36.1465 66.5949 36.0191 66.5949 35.8917V34.0127H66.6269ZM65.6986 38.8853C65.6986 38.6943 65.7626 38.535 65.8906 38.3758C66.0187 38.2484 66.2108 38.1847 66.4029 38.1847C66.5949 38.1847 66.755 38.2484 66.9151 38.3758C67.0431 38.5032 67.1071 38.6943 67.1071 38.8853C67.1071 39.0764 67.0431 39.2357 66.9151 39.3949C66.787 39.5223 66.5949 39.586 66.4029 39.586C66.2108 39.586 66.0187 39.5223 65.8906 39.3949C65.7626 39.2675 65.6986 39.0764 65.6986 38.8853ZM67.3312 38.8853C67.3312 38.6943 67.3953 38.535 67.5553 38.3758C67.6834 38.2484 67.8755 38.1847 68.0676 38.1847C68.2596 38.1847 68.4197 38.2484 68.5798 38.3758C68.7078 38.5032 68.7719 38.6943 68.7719 38.8853C68.7719 39.0764 68.7078 39.2357 68.5798 39.3949C68.4517 39.5223 68.2596 39.586 68.0676 39.586C67.8755 39.586 67.7154 39.5223 67.5553 39.3949C67.3953 39.2675 67.3312 39.0764 67.3312 38.8853Z" fill="#0C098C"/>
<path d="M70.2757 34.0127C70.2757 33.6942 70.4358 33.5032 70.7559 33.5032H71.4922V35.7643C71.4922 36.3694 71.3321 36.8153 70.98 37.1019C70.6278 37.3885 70.1476 37.5159 69.4433 37.5159H68.707V36.3376H69.4113C69.6674 36.3376 69.8915 36.2739 70.0516 36.1465C70.2117 36.0191 70.2757 35.8599 70.2757 35.6051V34.0127ZM69.7955 38.8853C69.7955 38.6943 69.8595 38.535 69.9876 38.3758C70.1156 38.2484 70.3077 38.1847 70.4998 38.1847C70.6919 38.1847 70.8519 38.2484 71.012 38.3758C71.1401 38.5032 71.2361 38.6943 71.2361 38.8853C71.2361 39.0764 71.1721 39.2675 71.012 39.3949C70.884 39.5223 70.6919 39.586 70.4998 39.586C70.3077 39.586 70.1476 39.5223 69.9876 39.3949C69.8595 39.2675 69.7955 39.0764 69.7955 38.8853Z" fill="#0C098C"/>
<path d="M132.862 20.1593H123.418C123.386 20.1593 123.354 20.1593 123.322 20.1593C122.81 20.1275 122.362 19.9364 122.01 19.5861C121.658 19.2357 121.466 18.7899 121.434 18.2485C121.434 18.2166 121.434 18.1848 121.434 18.1848V8.78986C121.434 7.07011 120.025 5.70068 118.328 5.70068H108.884C107.156 5.70068 105.779 7.10195 105.779 8.78986V15.1911V18.1848C105.779 18.7262 105.555 19.2357 105.203 19.5861C104.851 19.9364 104.338 20.1593 103.794 20.1593H101.649H94.3822C92.6534 20.1593 91.2769 21.5606 91.2769 23.2485V32.6434C91.2769 34.3632 92.6855 35.7326 94.3822 35.7326H103.826C105.555 35.7326 106.931 34.3313 106.931 32.6434V24.9364V23.2803C106.931 22.7389 107.156 22.2294 107.508 21.8791C107.86 21.5287 108.372 21.3058 108.916 21.3058H112.246H118.36H118.392C118.937 21.3058 119.417 21.5287 119.769 21.8791C120.121 22.2294 120.313 22.6752 120.345 23.1848C120.345 23.2166 120.345 23.2166 120.345 23.2485V32.6434C120.345 34.3632 121.754 35.7326 123.45 35.7326H132.894C134.623 35.7326 136 34.3313 136 32.6434V23.2485C135.968 21.5287 134.591 20.1593 132.862 20.1593Z" fill="#1ED573"/>
<path d="M102.194 34.4588H92.7499C90.605 34.4588 88.8442 32.7073 88.8442 30.5735V21.1786C88.8442 19.0448 90.605 17.2932 92.7499 17.2932H102.194C102.514 17.2932 102.834 17.1658 103.058 16.9429C103.282 16.72 103.41 16.4015 103.41 16.083V6.6881C103.41 4.55433 105.171 2.80273 107.316 2.80273H116.76C118.905 2.80273 120.666 4.55433 120.666 6.6881V16.1786C120.666 16.4333 120.794 16.72 121.018 16.9429C121.21 17.134 121.498 17.2614 121.786 17.2932C121.818 17.2932 121.85 17.2932 121.882 17.2932H131.326C133.471 17.2932 135.232 19.0448 135.232 21.1786V30.5735C135.232 32.7073 133.471 34.4588 131.326 34.4588H121.882C119.737 34.4588 117.977 32.7073 117.977 30.5735V21.083C117.977 20.8282 117.848 20.5416 117.624 20.3505C117.4 20.1276 117.112 20.0002 116.792 20.0002H107.348C107.028 20.0002 106.708 20.1276 106.484 20.3505C106.26 20.5735 106.132 20.8919 106.132 21.2104V30.6053C106.1 32.7072 104.339 34.4588 102.194 34.4588ZM92.7499 17.8346C90.8931 17.8346 89.3564 19.3314 89.3564 21.2104V30.6053C89.3564 32.4525 90.8611 33.9811 92.7499 33.9811H102.194C104.051 33.9811 105.587 32.4843 105.587 30.6053V21.2104C105.587 20.7645 105.779 20.3187 106.1 20.0002C106.42 19.6817 106.868 19.4907 107.316 19.4907H116.76C117.208 19.4907 117.656 19.6817 117.977 20.0002C118.265 20.2868 118.457 20.7009 118.489 21.1149V21.2104V30.6053C118.489 32.4525 119.993 33.9811 121.882 33.9811H131.326C133.183 33.9811 134.72 32.4843 134.72 30.6053V21.2104C134.72 19.3633 133.215 17.8346 131.326 17.8346H121.818C121.37 17.8028 120.986 17.6435 120.698 17.3251C120.41 17.0384 120.218 16.6244 120.185 16.2104V16.1149V6.71993C120.185 4.8728 118.681 3.34414 116.792 3.34414H107.348C105.491 3.34414 103.955 4.84095 103.955 6.71993V16.1149C103.955 16.5607 103.763 17.0066 103.442 17.3251C103.122 17.6435 102.674 17.8346 102.226 17.8346H92.7499Z" fill="#0C098C"/>
<path d="M5.03253 13.0574C5.03253 11.9109 5.57676 11.3376 6.69724 11.3376H9.25832V20.7326C9.25832 20.9555 9.54644 21.0829 10.0907 21.1147C10.6349 21.1466 11.3072 21.1784 12.0755 21.1784H13.4521V25.223H12.0755C11.6913 25.223 11.2432 25.1275 10.6669 24.9364C10.0907 24.7453 9.64248 24.5224 9.25832 24.2676V28.2485C9.25832 30.1275 8.81013 31.4969 7.94576 32.3568C7.0814 33.2167 5.89689 33.6625 4.39226 33.6625C3.97608 33.6625 3.46387 33.6307 2.88763 33.5351C2.31138 33.4396 1.60708 33.2485 0.774729 32.93C0.0704314 32.5797 -0.153665 31.9746 0.102443 31.0511L0.678683 28.8536C1.35097 29.2358 1.92722 29.4906 2.40742 29.6179C2.88763 29.7453 3.3038 29.809 3.65595 29.809C4.16817 29.809 4.55233 29.6498 4.77642 29.395C5.00052 29.1084 5.09656 28.6625 5.09656 28.0256V13.0574H5.03253Z" fill="#1ED573"/>
<path d="M15.3091 6.33757C15.3091 5.22291 15.8533 4.64966 16.9738 4.64966H19.5349V12.3567L30.8036 10.5732C31.4119 10.5095 31.9561 10.5095 32.4043 10.5732C32.8845 10.6369 33.4287 10.828 34.037 11.1465C34.6453 11.4331 35.1895 11.7834 35.6057 12.1337C36.0538 12.4841 36.438 12.9299 36.7581 13.4713C37.0783 14.0127 37.3664 14.6178 37.5585 15.3503C37.7506 16.0828 37.8466 16.9108 37.8466 17.8981C37.8466 18.8535 37.7506 19.7771 37.5265 20.6688C37.3024 21.5605 36.9502 22.3567 36.47 23.0255C35.9578 23.7261 35.2855 24.2675 34.4212 24.6815C33.5568 25.0956 32.4683 25.2866 31.1878 25.2866H12.2998V21.242H15.3091V6.33757ZM30.7076 21.2102C30.9317 21.2102 31.2198 21.1784 31.604 21.0828C31.9561 20.9873 32.3083 20.828 32.6284 20.6051C32.9485 20.3822 33.2367 20.0637 33.4608 19.6497C33.6849 19.2357 33.8129 18.7261 33.8129 18.0573C33.8129 17.293 33.7169 16.6561 33.4928 16.2102C33.2687 15.7643 33.0126 15.3822 32.7244 15.1274C32.4363 14.8726 32.1162 14.6815 31.764 14.586C31.4119 14.4904 31.1558 14.4267 30.9317 14.4267L19.5349 16.3376V21.1784H30.7076V21.2102Z" fill="#1ED573"/>
<path d="M42.3291 2.54761H44.8902C45.9786 2.54761 46.5549 3.12085 46.5549 4.2355V18.7897C46.5549 19.5859 46.779 20.1909 47.2592 20.605C47.7394 21.019 48.5077 21.2101 49.5642 21.2101H51.0048V25.2547H49.5321C48.0915 25.2547 46.9391 25.0954 46.0107 24.7451C45.0823 24.3948 44.378 23.8852 43.8017 23.2483C43.2575 22.6113 42.8733 21.8151 42.6492 20.8916C42.4251 19.968 42.3291 18.9171 42.3291 17.7387V2.54761Z" fill="#1ED573"/>
<path d="M69.796 25.2548C68.7396 25.2548 67.8752 25.0637 67.1389 24.7134C66.4346 24.3631 65.8904 24.0128 65.5062 23.6625C65.1541 24.0128 64.6419 24.3312 64.0016 24.6497C63.3293 24.9682 62.4329 25.1593 61.3124 25.2548H60.5761C60.0639 25.2548 59.3916 25.1593 58.6553 24.9363C57.887 24.7134 57.1827 24.395 56.5744 23.9491C56.1583 24.3313 55.614 24.6497 54.9417 24.8727C54.2695 25.1274 53.5011 25.2548 52.6048 25.2548H49.5635V21.2102H51.7724C52.4447 21.2102 52.9249 21.051 53.213 20.7325C53.5011 20.414 53.6292 20 53.6292 19.4905V15.3822C53.6292 14.2357 54.1734 13.6624 55.2299 13.6624H57.823V20.5733C57.983 20.6688 58.2712 20.7962 58.6873 20.9555C59.1035 21.1147 59.7758 21.2102 60.6402 21.2102C60.8963 21.2102 61.1524 21.1784 61.4405 21.1465C61.7286 21.1147 61.9527 21.051 62.1768 20.9555C62.4009 20.8599 62.593 20.7325 62.7531 20.5414C62.9131 20.3822 62.9771 20.1274 62.9771 19.8408V15.3822C62.9771 14.2357 63.5214 13.6624 64.6419 13.6624H67.2029V20.3185C67.5871 20.7325 68.0353 20.9873 68.5155 21.0828C68.9957 21.1784 69.4439 21.2102 69.8601 21.2102C70.9485 21.2102 71.6528 20.9873 72.005 20.5096C72.3571 20.0319 72.5492 19.3312 72.5492 18.4077V13.0573C72.5492 11.9109 73.0934 11.3376 74.2139 11.3376H76.775V18.3121C76.775 19.3312 76.6789 20.2548 76.4869 21.1147C76.2948 21.9746 75.9426 22.6752 75.4304 23.3121C74.9182 23.9172 74.2139 24.395 73.3175 24.7453C72.3251 25.0637 71.1726 25.2548 69.796 25.2548ZM60.1279 7.38854C60.1279 6.71975 60.352 6.1465 60.8322 5.6688C61.3124 5.19109 61.8887 4.96815 62.593 4.96815C63.2653 4.96815 63.8415 5.19109 64.3217 5.6688C64.8019 6.1465 65.026 6.71975 65.026 7.38854C65.026 8.05733 64.8019 8.63058 64.3217 9.10829C63.8415 9.586 63.2653 9.80893 62.593 9.80893C61.8887 9.80893 61.3124 9.586 60.8322 9.10829C60.352 8.63058 60.1279 8.05733 60.1279 7.38854ZM62.9131 2.45223C62.9131 1.75159 63.1372 1.17834 63.6174 0.700632C64.0976 0.222925 64.6739 0 65.3782 0C66.0504 0 66.6267 0.222925 67.1069 0.700632C67.5871 1.17834 67.8112 1.75159 67.8112 2.45223C67.8112 3.12102 67.5871 3.69427 67.1069 4.17197C66.6267 4.64968 66.0504 4.87262 65.3782 4.87262C64.6739 4.87262 64.0976 4.64968 63.6174 4.17197C63.1372 3.69427 62.9131 3.12102 62.9131 2.45223ZM65.7943 7.38854C65.7943 6.71975 66.0504 6.1465 66.5307 5.6688C67.0109 5.19109 67.5871 4.96815 68.2914 4.96815C68.9637 4.96815 69.5399 5.19109 70.0201 5.6688C70.5003 6.1465 70.7244 6.71975 70.7244 7.38854C70.7244 8.05733 70.5003 8.63058 70.0201 9.10829C69.5399 9.586 68.9637 9.80893 68.2914 9.80893C67.6191 9.80893 67.0429 9.586 66.5307 9.10829C66.0504 8.63058 65.7943 8.05733 65.7943 7.38854Z" fill="#1ED573"/>
<path d="M18.6705 33.1526C18.6705 32.8341 18.8305 32.6431 19.1507 32.6431H19.887V35.3819C19.887 35.4456 19.951 35.4775 20.1111 35.5093C20.2711 35.5093 20.4632 35.5412 20.6873 35.5412H21.1035V36.7195H20.6873C20.5913 36.7195 20.4312 36.6877 20.2711 36.624C20.1111 36.5603 19.983 36.4966 19.855 36.4329V37.5794C19.855 38.1208 19.7269 38.503 19.4708 38.7577C19.2147 39.0125 18.8625 39.1399 18.4464 39.1399C18.3183 39.1399 18.1903 39.1399 17.9982 39.108C17.8381 39.0762 17.614 39.0125 17.3899 38.917C17.1978 38.8214 17.1338 38.6303 17.1978 38.3756L17.3579 37.7386C17.55 37.8342 17.7101 37.9297 17.8701 37.9616C17.9982 37.9934 18.1262 38.0252 18.2223 38.0252C18.3823 38.0252 18.4784 37.9934 18.5424 37.8979C18.6064 37.8023 18.6384 37.6749 18.6384 37.5157V33.1526H18.6705Z" fill="#F2D602"/>
<path d="M21.6483 31.2101C21.6483 30.8917 21.8083 30.7324 22.1285 30.7324H22.8648V32.9617L26.1302 32.4522C26.2902 32.4203 26.4503 32.4203 26.6104 32.4522C26.7704 32.484 26.8985 32.5159 27.0906 32.6114C27.2826 32.7069 27.4107 32.8025 27.5388 32.898C27.6668 32.9936 27.7628 33.121 27.8909 33.2802C27.9869 33.4394 28.051 33.5987 28.115 33.8216C28.179 34.0445 28.211 34.2675 28.211 34.5541C28.211 34.8407 28.179 35.0955 28.115 35.3503C28.051 35.605 27.9549 35.828 27.7949 36.0509C27.6348 36.242 27.4427 36.4012 27.2186 36.5286C26.9625 36.656 26.6424 36.7197 26.2902 36.7197H20.8159V35.5413H21.6803V31.2101H21.6483ZM26.0982 35.5095C26.1622 35.5095 26.2582 35.5095 26.3543 35.4776C26.4503 35.4458 26.5463 35.414 26.6424 35.3503C26.7384 35.2866 26.8025 35.191 26.8985 35.0636C26.9625 34.9362 26.9945 34.777 26.9945 34.6178C26.9945 34.3949 26.9625 34.2038 26.8985 34.0764C26.8345 33.949 26.7704 33.8534 26.6744 33.7579C26.5784 33.6942 26.4823 33.6305 26.3863 33.5987C26.2902 33.5668 26.1942 33.5668 26.1302 33.5668L22.8328 34.1082V35.5095H26.0982Z" fill="#F2D602"/>
<path d="M29.4595 30.0955H30.1958C30.5159 30.0955 30.676 30.2547 30.676 30.5732V34.777C30.676 34.9999 30.74 35.191 30.8681 35.2865C30.9961 35.4139 31.2202 35.4776 31.5404 35.4776H31.9565V36.656H31.5404C31.1242 36.656 30.804 36.5923 30.5159 36.4967C30.2598 36.4012 30.0357 36.242 29.8756 36.0509C29.7156 35.8598 29.6195 35.6369 29.5555 35.3502C29.4915 35.0955 29.4595 34.777 29.4595 34.4267V30.0955Z" fill="#F2D602"/>
<path d="M37.5588 36.6878C37.2067 36.6878 36.9185 36.6241 36.6944 36.5286C36.4703 36.433 36.3103 36.3056 36.1822 36.2101C36.0862 36.3056 35.9261 36.4012 35.734 36.4967C35.5419 36.5922 35.2858 36.6559 34.9657 36.6878H34.7736C34.6136 36.6878 34.4215 36.6559 34.1974 36.5922C33.9733 36.5285 33.7812 36.433 33.5891 36.3056C33.4611 36.433 33.301 36.5285 33.1089 36.5922C32.9168 36.6559 32.6927 36.6878 32.4366 36.6878H31.5723V35.5094H32.2125C32.4046 35.5094 32.5327 35.4457 32.5967 35.3502C32.6607 35.2547 32.6927 35.1273 32.6927 34.968V33.7897C32.6927 33.4712 32.8528 33.2801 33.1729 33.2801H33.9093V35.2865C33.9413 35.3184 34.0373 35.3502 34.1333 35.4139C34.2614 35.4457 34.4215 35.4776 34.6776 35.4776C34.7416 35.4776 34.8377 35.4776 34.9017 35.4457C34.9977 35.4457 35.0617 35.4139 35.1258 35.382C35.1898 35.3502 35.2538 35.3184 35.2858 35.2547C35.3179 35.191 35.3499 35.1273 35.3499 35.0636V33.7578C35.3499 33.4394 35.5099 33.2483 35.8301 33.2483H36.5664V35.1591C36.6944 35.2865 36.8545 35.3502 37.0146 35.382C37.2066 35.4139 37.3347 35.4139 37.4628 35.4139H37.4948C37.6869 35.4139 37.8149 35.382 37.911 35.2865C37.975 35.191 38.039 35.0636 38.039 34.9362V33.089C38.039 32.7706 38.1991 32.5795 38.5192 32.5795H39.2555V35.2547C39.2555 35.3184 39.3195 35.3821 39.4796 35.4139C39.6397 35.4457 39.8318 35.4457 40.0879 35.4457H40.5041V36.6241H40.0879C39.9278 36.6241 39.7357 36.5922 39.5116 36.4967C39.2875 36.4012 39.0955 36.3056 38.9034 36.1782C38.7753 36.2738 38.6153 36.4012 38.4232 36.4649C38.2311 36.5604 38.007 36.5922 37.7509 36.5922H37.5588V36.6878ZM34.6136 31.5285C34.6136 31.3375 34.6776 31.1782 34.8056 31.019C34.9337 30.8916 35.1258 30.8279 35.3179 30.8279C35.5099 30.8279 35.67 30.8916 35.8301 31.019C35.9581 31.1464 36.0222 31.3375 36.0222 31.5285C36.0222 31.7196 35.9581 31.8789 35.8301 32.0381C35.702 32.1655 35.5099 32.2292 35.3179 32.2292C35.1258 32.2292 34.9337 32.1655 34.8056 32.0381C34.6776 31.8789 34.6136 31.7196 34.6136 31.5285ZM35.4139 30.0954C35.4139 29.9043 35.4779 29.7132 35.606 29.5859C35.734 29.4585 35.9261 29.3948 36.1182 29.3948C36.3103 29.3948 36.4703 29.4585 36.6304 29.5859C36.7585 29.7132 36.8225 29.9043 36.8225 30.0954C36.8225 30.2865 36.7585 30.4457 36.6304 30.605C36.5024 30.7324 36.3103 30.7961 36.1182 30.7961C35.9261 30.7961 35.734 30.7324 35.606 30.605C35.4779 30.4457 35.4139 30.2865 35.4139 30.0954ZM36.2462 31.5285C36.2462 31.3375 36.3103 31.1782 36.4703 31.019C36.5984 30.8916 36.7905 30.8279 36.9826 30.8279C37.1746 30.8279 37.3347 30.8916 37.4948 31.019C37.6228 31.1464 37.6869 31.3375 37.6869 31.5285C37.6869 31.7196 37.6228 31.8789 37.4948 32.0381C37.3667 32.1655 37.1746 32.2292 36.9826 32.2292C36.7905 32.2292 36.6304 32.1655 36.4703 32.0381C36.3423 31.8789 36.2462 31.7196 36.2462 31.5285Z" fill="#F2D602"/>
<path d="M42.8732 34.4903C42.8732 34.8406 42.8412 35.1272 42.7772 35.4138C42.7131 35.7005 42.6171 35.9234 42.457 36.1145C42.297 36.3055 42.0729 36.4329 41.8168 36.5603C41.5607 36.6559 41.2085 36.7196 40.7923 36.7196H40.1841V35.5412H40.7923C41.1125 35.5412 41.3046 35.4775 41.4646 35.3501C41.5927 35.2228 41.6567 35.0635 41.6567 34.8087V30.6049C41.6567 30.2864 41.8168 30.1272 42.1369 30.1272H42.8732V34.4903Z" fill="#F2D602"/>
<path d="M45.3376 36.1783C45.3376 36.4967 45.1775 36.656 44.8574 36.656H44.1211V30.5732C44.1211 30.2547 44.2812 30.0955 44.6013 30.0955H45.3376V36.1783Z" fill="#F2D602"/>
<path d="M55.9342 35.3189C55.9342 35.3826 55.9982 35.4463 56.1583 35.4781C56.3183 35.51 56.5104 35.51 56.7345 35.51H57.1507V36.6883H56.7345C56.5745 36.6883 56.3824 36.6565 56.1903 36.5609C55.9982 36.4654 55.8061 36.3699 55.614 36.2106C55.518 36.3699 55.3579 36.4654 55.1338 36.5609C54.9097 36.6565 54.6857 36.6883 54.4295 36.6883H51.5483C51.1322 36.6883 50.748 36.6246 50.4279 36.5291C50.1077 36.4017 49.8516 36.2743 49.6595 36.0514C49.4674 35.8285 49.3074 35.6374 49.2113 35.3826C49.1153 35.1278 49.0513 34.8412 49.0513 34.5546C49.0513 34.3635 49.0833 34.1724 49.1153 33.9813C49.1473 33.7902 49.1793 33.631 49.2434 33.4718C49.3074 33.3125 49.3394 33.1533 49.4034 33.0259C49.6595 33.0896 49.8836 33.1851 50.0757 33.2488C50.2358 33.3125 50.3318 33.3762 50.3638 33.4399C50.3958 33.5355 50.3958 33.6629 50.3638 33.8221C50.3638 33.9176 50.3318 34.0132 50.2998 34.1087C50.2678 34.2042 50.2678 34.3316 50.2678 34.4909C50.2678 34.7138 50.2998 34.873 50.3638 35.0323C50.4279 35.1597 50.5239 35.2871 50.6519 35.3508C50.78 35.4145 50.9081 35.4781 51.0681 35.51C51.2282 35.5418 51.3562 35.5418 51.5163 35.5418H54.1414C54.3335 35.5418 54.4616 35.51 54.5576 35.4145C54.6536 35.3189 54.6857 35.1915 54.6857 35.0641V30.6374C54.6857 30.3189 54.8457 30.1597 55.1659 30.1597H55.9022V35.3189H55.9342ZM51.3562 32.9304V32.4527C51.3562 32.2934 51.4523 32.1979 51.6124 32.1979C51.5483 32.1023 51.5483 32.0068 51.5483 31.8476C51.5483 31.6883 51.5803 31.5291 51.6444 31.4017C51.7084 31.2743 51.8044 31.1788 51.9005 31.1151C52.0285 31.0514 52.1246 30.9877 52.2846 30.9558C52.4127 30.924 52.5728 30.8921 52.7328 30.8921C52.8609 30.8921 52.9889 30.8921 53.117 30.924C53.245 30.9558 53.4371 30.9877 53.5972 31.0514C53.5972 31.1788 53.5652 31.3062 53.5332 31.4336C53.5012 31.4972 53.4691 31.5928 53.4051 31.6246C53.3411 31.6883 53.2771 31.6883 53.213 31.6883C53.053 31.6565 52.8609 31.6246 52.7008 31.6246C52.5087 31.6246 52.3807 31.6565 52.3167 31.7202C52.2526 31.7839 52.2206 31.8476 52.2206 31.8794C52.2206 32.0068 52.2846 32.0705 52.3807 32.1342C52.4767 32.166 52.6048 32.1979 52.7008 32.1979H53.245C53.4051 32.1979 53.5011 32.2934 53.5011 32.4527V32.9304H51.3562Z" fill="#F2D602"/>
<path d="M60.8643 35.5096C60.9924 35.5096 61.0564 35.5096 61.1204 35.5414C61.1845 35.5733 61.2165 35.6051 61.2485 35.6688C61.2805 35.7325 61.2805 35.7644 61.2805 35.8281C61.2805 35.8918 61.2805 35.9554 61.2805 36.0191V36.6561H56.7666V35.4777H57.5349C57.4709 35.3503 57.4389 35.223 57.3749 35.0637C57.3428 34.9045 57.3108 34.7134 57.3108 34.4586C57.3108 34.1402 57.3428 33.8535 57.4389 33.5988C57.5349 33.344 57.663 33.1211 57.823 32.9618C58.0151 32.7707 58.2392 32.6433 58.5273 32.5478C58.8155 32.4523 59.1676 32.4204 59.5838 32.4204C59.7759 32.4204 59.968 32.4204 60.1921 32.4522C60.4161 32.4841 60.6082 32.516 60.8003 32.5478C60.9924 32.5797 61.1845 32.6115 61.4086 32.6752C61.3445 32.8981 61.2805 33.0892 61.2165 33.2803C61.1845 33.4395 61.0884 33.5351 60.9924 33.5988C60.8964 33.6625 60.7363 33.6943 60.5122 33.6625C60.3201 33.6306 60.16 33.6306 60 33.5988C59.8399 33.5988 59.6478 33.5669 59.4878 33.5669C59.2957 33.5669 59.1356 33.5988 59.0396 33.6306C58.9115 33.6624 58.8155 33.758 58.7514 33.8217C58.6874 33.9172 58.6554 34.0128 58.6234 34.1083C58.5914 34.2357 58.5914 34.3312 58.5914 34.4586C58.5914 34.6816 58.6234 34.8408 58.6554 34.9682C58.6874 35.0956 58.7514 35.1911 58.8155 35.2867C58.8795 35.3504 58.9435 35.414 59.0075 35.4459C59.0716 35.4777 59.1356 35.4777 59.1676 35.4777H60.8643V35.5096Z" fill="#F2D602"/>
<path d="M62.4653 30.0955H63.2016C63.5218 30.0955 63.6819 30.2547 63.6819 30.5732V34.777C63.6819 34.9999 63.7459 35.191 63.8739 35.2865C64.002 35.4139 64.2261 35.4776 64.5462 35.4776H64.9624V36.656H64.5462C64.13 36.656 63.8099 36.5923 63.5218 36.4967C63.2657 36.4012 63.0416 36.242 62.8815 36.0509C62.7214 35.8598 62.6254 35.6369 62.5614 35.3502C62.4974 35.0955 62.4653 34.777 62.4653 34.4267V30.0955Z" fill="#F2D602"/>
<path d="M65.7617 33.1526C65.7617 32.8341 65.9218 32.6431 66.2419 32.6431H66.9782V35.3182C66.9782 35.3819 67.0422 35.4456 67.1703 35.4775C67.2984 35.5093 67.5225 35.5093 67.8106 35.5093H68.2267V36.6877H67.8106C67.6505 36.6877 67.4584 36.6558 67.2343 36.5921C67.0102 36.5284 66.8182 36.4329 66.6261 36.2736C66.498 36.3692 66.3379 36.4647 66.1459 36.5603C65.9538 36.6558 65.7297 36.6877 65.4736 36.6877H64.5132V35.5093H65.1855C65.3775 35.5093 65.5056 35.4775 65.6016 35.3819C65.6977 35.2864 65.7297 35.159 65.7297 35.0316V33.1526H65.7617ZM64.8013 38.0252C64.8013 37.8341 64.8653 37.6749 64.9934 37.5157C65.1214 37.3883 65.3135 37.3246 65.5056 37.3246C65.6977 37.3246 65.8577 37.3883 66.0178 37.5157C66.1459 37.6431 66.2099 37.8341 66.2099 38.0252C66.2099 38.2163 66.1459 38.3756 66.0178 38.5348C65.8898 38.6622 65.6977 38.7259 65.5056 38.7259C65.3135 38.7259 65.1214 38.6622 64.9934 38.5348C64.8653 38.3756 64.8013 38.2163 64.8013 38.0252ZM66.434 38.0252C66.434 37.8341 66.498 37.6749 66.6581 37.5157C66.7861 37.3883 66.9782 37.3246 67.1703 37.3246C67.3624 37.3246 67.5225 37.3883 67.6825 37.5157C67.8106 37.6431 67.8746 37.8341 67.8746 38.0252C67.8746 38.2163 67.8106 38.3756 67.6825 38.5348C67.5545 38.6622 67.3624 38.7259 67.1703 38.7259C66.9782 38.7259 66.8182 38.6622 66.6581 38.5348C66.53 38.3756 66.434 38.2163 66.434 38.0252Z" fill="#F2D602"/>
<path d="M69.3797 33.1526C69.3797 32.8341 69.5398 32.6431 69.8599 32.6431H70.5962V34.9042C70.5962 35.5093 70.4361 35.9552 70.084 36.2418C69.7318 36.5284 69.2516 36.6558 68.5473 36.6558H67.811V35.4775H68.5153C68.7714 35.4775 68.9955 35.4138 69.1556 35.2864C69.3157 35.159 69.3797 34.9998 69.3797 34.745V33.1526ZM68.8995 37.9934C68.8995 37.8023 68.9635 37.6431 69.0916 37.4838C69.2196 37.3565 69.4117 37.2927 69.6038 37.2927C69.7959 37.2927 69.9559 37.3565 70.116 37.4838C70.2441 37.6112 70.3401 37.8023 70.3401 37.9934C70.3401 38.1845 70.2761 38.3755 70.116 38.5029C69.988 38.6303 69.7959 38.694 69.6038 38.694C69.4117 38.694 69.2516 38.6303 69.0916 38.5029C68.9635 38.3755 68.8995 38.2163 68.8995 37.9934Z" fill="#F2D602"/>
<path d="M80.8084 5.73242V6.11458C80.8084 6.27382 80.7444 6.36937 80.5843 6.36937H79.7199V9.52224H79.0797V6.36937H77.9912V5.95535C77.9912 5.79611 78.0552 5.73242 78.2153 5.73242H80.8084Z" fill="#1ED573"/>
<path d="M84.2662 5.92361C84.2982 5.85991 84.3622 5.79622 84.4263 5.76437C84.4903 5.73252 84.5543 5.70068 84.6503 5.70068C84.7464 5.70068 84.8104 5.73253 84.9065 5.79622C85.0025 5.85992 85.0345 5.98731 85.0345 6.14654V9.26756C85.0345 9.4268 84.9705 9.4905 84.8104 9.4905H84.3942V6.81534L83.4658 8.15291C83.3698 8.2803 83.2738 8.344 83.1137 8.344C82.9536 8.344 82.8576 8.2803 82.7615 8.15291L81.8331 6.81534V9.26756C81.8331 9.4268 81.7691 9.4905 81.609 9.4905H81.1929V6.14654C81.1929 5.98731 81.2249 5.85992 81.3209 5.79622C81.417 5.73253 81.481 5.70068 81.577 5.70068C81.6731 5.70068 81.7371 5.73252 81.8011 5.76437C81.8652 5.79622 81.9292 5.85992 81.9612 5.89177L83.1137 7.57967L84.2662 5.92361Z" fill="#1ED573"/>
</svg>
